<?xml version="1.0" encoding="utf-8"?>
<!-- Generator: Adobe Illustrator 21.0.2, SVG Export Plug-In . SVG Version: 6.00 Build 0)  -->
<svg version="1.1" id="Layer_1" xmlns="http://www.w3.org/2000/svg" xmlns:xlink="http://www.w3.org/1999/xlink" x="0px" y="0px"
	 viewBox="0 0 82 82" style="enable-background:new 0 0 82 82;" xml:space="preserve">
<style type="text/css">
	.st0{opacity:0.2;enable-background:new    ;}
	.st1{opacity:0.5;}
	.st2{fill:none;stroke:#FFFFFF;stroke-width:2;}
	.st3{enable-background:new    ;}
	.st4{fill:#FFFFFF;}
</style>
<title>Group 10</title>
<desc>Created with Sketch.</desc>
<g id="Page-1">
	<g id="content-header-1440-copy-27" transform="translate(-679.000000, -7728.000000)">
		<g id="Group-10" transform="translate(680.000000, 7729.000000)">
			<circle id="Oval-2" class="st0" cx="40" cy="40" r="40"/>
			
				<g id="Group-4-Copy" transform="translate(40.000000, 40.000000) rotate(-270.000000) translate(-40.000000, -40.000000) translate(0.000000, 0.000000)" class="st1">
				<circle id="Oval-2_1_" class="st2" cx="40" cy="40" r="40"/>
				
					<ellipse id="Oval-2-Copy-2" transform="matrix(2.535182e-06 1 -1 2.535182e-06 80.7999 -0.8001)" class="st2" cx="40.8" cy="40" rx="40" ry="24"/>
				
					<ellipse id="Oval-2-Copy" transform="matrix(2.535182e-06 1 -1 2.535182e-06 79.9999 -1.014071e-04)" class="st2" cx="40" cy="40" rx="24" ry="40"/>
			</g>
			<g class="st3">
				<path class="st4" d="M27.9,41.5c0.1,0.7,0.2,1.2,0.5,1.5c0.3,0.3,0.7,0.4,1.3,0.4c0.5,0,0.9-0.1,1.3-0.4
					c0.3-0.2,0.5-0.6,0.5-1.2c0-0.5-0.1-0.9-0.4-1.2c-0.3-0.2-0.7-0.4-1.4-0.4h-1.1v-2h1.2c0.9,0,1.4-0.5,1.4-1.4
					c0-0.2,0-0.4-0.1-0.5c-0.1-0.2-0.1-0.3-0.3-0.4c-0.1-0.1-0.3-0.2-0.5-0.3s-0.4-0.1-0.7-0.1c-0.5,0-0.9,0.1-1.2,0.4
					c-0.3,0.2-0.5,0.7-0.7,1.2l-2.1-0.3c0.1-0.5,0.2-0.9,0.4-1.3c0.2-0.4,0.4-0.7,0.8-1c0.3-0.3,0.7-0.5,1.2-0.7
					c0.5-0.2,1-0.2,1.7-0.2c0.6,0,1.2,0.1,1.6,0.2s0.9,0.4,1.2,0.6c0.3,0.3,0.5,0.6,0.7,1c0.2,0.4,0.2,0.8,0.2,1.2
					c0,0.5-0.1,1-0.4,1.4c-0.2,0.4-0.6,0.8-1.1,1c0.6,0.3,1.1,0.6,1.4,1.1c0.3,0.5,0.4,1,0.4,1.5c0,0.5-0.1,1-0.2,1.4
					s-0.4,0.8-0.7,1.1s-0.7,0.6-1.2,0.7c-0.5,0.2-1.1,0.3-1.8,0.3c-0.8,0-1.5-0.1-2-0.3c-0.5-0.2-1-0.5-1.3-0.9
					c-0.3-0.4-0.5-0.8-0.7-1.2s-0.2-0.9-0.2-1.3H27.9z"/>
				<path class="st4" d="M41.1,36.7c-0.1-0.2-0.1-0.3-0.2-0.5s-0.1-0.3-0.3-0.4c-0.1-0.1-0.2-0.2-0.4-0.2c-0.2-0.1-0.4-0.1-0.7-0.1
					c-0.7,0-1.2,0.3-1.5,0.9s-0.5,1.4-0.6,2.4c0.3-0.3,0.7-0.6,1.1-0.7s0.9-0.2,1.4-0.2c1.1,0,1.9,0.3,2.5,0.9
					c0.6,0.6,0.9,1.5,0.9,2.7c0,0.6-0.1,1.1-0.3,1.6s-0.5,0.9-0.8,1.2s-0.8,0.6-1.2,0.8c-0.5,0.2-1,0.3-1.7,0.3
					c-0.8,0-1.4-0.2-2-0.5s-0.9-0.7-1.2-1.2c-0.3-0.5-0.5-1-0.6-1.6c-0.1-0.6-0.2-1.2-0.2-1.8c0-1.2,0.1-2.3,0.3-3.1
					c0.2-0.8,0.5-1.5,0.9-2c0.4-0.5,0.9-0.9,1.4-1.1c0.5-0.2,1.1-0.3,1.7-0.3c1.1,0,1.9,0.2,2.5,0.7s0.9,1.2,1.1,2.1L41.1,36.7z
					 M39.3,43.5c0.5,0,0.9-0.2,1.3-0.5c0.3-0.3,0.5-0.8,0.5-1.5c0-0.6-0.1-1-0.4-1.4c-0.3-0.4-0.7-0.5-1.3-0.5c-0.2,0-0.4,0-0.7,0.1
					c-0.2,0.1-0.4,0.2-0.6,0.3c-0.2,0.1-0.3,0.3-0.4,0.6c-0.1,0.2-0.1,0.6-0.1,0.9c0,0.3,0.1,0.5,0.1,0.8s0.2,0.5,0.3,0.6
					c0.1,0.2,0.3,0.3,0.5,0.4C38.7,43.4,39,43.5,39.3,43.5z"/>
				<path class="st4" d="M48.6,45.3c-1.3,0-2.3-0.5-3.1-1.4c-0.7-0.9-1.1-2.4-1.1-4.4c0-1,0.1-1.9,0.3-2.6s0.5-1.3,0.8-1.8
					c0.4-0.5,0.8-0.8,1.3-1.1c0.5-0.2,1.1-0.3,1.8-0.3c1.3,0,2.3,0.5,3.1,1.4c0.7,0.9,1.1,2.4,1.1,4.4c0,2-0.4,3.5-1.1,4.4
					C51,44.8,50,45.3,48.6,45.3z M48.7,43.3c0.4,0,0.6-0.1,0.9-0.3c0.2-0.2,0.4-0.4,0.6-0.8s0.3-0.7,0.3-1.2s0.1-1,0.1-1.6
					c0-0.6,0-1.1-0.1-1.6s-0.2-0.9-0.3-1.2s-0.3-0.6-0.6-0.8c-0.2-0.2-0.5-0.3-0.9-0.3s-0.6,0.1-0.9,0.3c-0.2,0.2-0.4,0.4-0.6,0.8
					s-0.2,0.7-0.3,1.2c-0.1,0.5-0.1,1-0.1,1.6c0,0.6,0,1.1,0.1,1.6c0.1,0.5,0.2,0.9,0.3,1.2s0.3,0.6,0.6,0.8
					C48,43.2,48.3,43.3,48.7,43.3z"/>
				<path class="st4" d="M53.9,35.9c0-0.3,0.1-0.6,0.2-0.9s0.3-0.5,0.5-0.7c0.2-0.2,0.5-0.4,0.7-0.5c0.3-0.1,0.6-0.2,0.9-0.2
					c0.3,0,0.6,0.1,0.9,0.2c0.3,0.1,0.5,0.3,0.7,0.5s0.4,0.5,0.5,0.7c0.1,0.3,0.2,0.6,0.2,0.9c0,0.3-0.1,0.6-0.2,0.9
					c-0.1,0.3-0.3,0.5-0.5,0.7s-0.4,0.4-0.7,0.5c-0.3,0.1-0.6,0.2-0.9,0.2c-0.3,0-0.7-0.1-0.9-0.2c-0.3-0.1-0.5-0.3-0.7-0.5
					c-0.2-0.2-0.4-0.5-0.5-0.7S53.9,36.3,53.9,35.9z M56.2,37c0.3,0,0.5-0.1,0.7-0.3c0.2-0.2,0.3-0.4,0.3-0.8c0-0.3-0.1-0.6-0.3-0.7
					c-0.2-0.2-0.4-0.3-0.7-0.3c-0.3,0-0.6,0.1-0.7,0.3s-0.3,0.4-0.3,0.7c0,0.3,0.1,0.6,0.3,0.8S55.9,37,56.2,37z"/>
			</g>
		</g>
	</g>
</g>
</svg>
