<?xml version="1.0" encoding="utf-8"?>
<!-- Generator: Adobe Illustrator 19.0.0, SVG Export Plug-In . SVG Version: 6.00 Build 0)  -->
<svg version="1.1" id="图层_1" xmlns="http://www.w3.org/2000/svg" xmlns:xlink="http://www.w3.org/1999/xlink" x="0px" y="0px"
	 viewBox="-197 320.9 200 200" style="enable-background:new -197 320.9 200 200;" xml:space="preserve">
<style type="text/css">
	.st0{fill:#FFFFFF;}
</style>
<path class="st0" d="M-39.9,320.9h-114.3c-23.6,0-42.9,19.3-42.9,42.9V478c0,23.6,19.3,42.9,42.9,42.9h114.3
	C-16.3,520.9,3,501.6,3,478V363.8C3,340.2-16.3,320.9-39.9,320.9z M-54.4,456.3c-0.5,2.1-1.4,4.2-2.7,5.9c-1.4,1.8-3.1,3.3-5.1,4.4
	c-2.1,1.1-4.2,1.8-6.5,2.2c-4.3,0.8-7.3,1-10,0.5c-2.6-0.5-4.9-1.7-6.8-3.1c-2.7-2.3-4.4-5.4-4.7-8.6c-0.4-3.8,0.9-7.8,4-10.8
	c1.6-1.5,3.5-2.7,6.1-3.6c2.7-1,5.7-1.6,10.3-2.4c1.2-0.2,2.4-0.4,3.6-0.6c1.6-0.3,2.9-0.6,4.1-1.9c1.1-1.3,1.1-2.8,1.1-4.3v-38.2
	c0-2.9-1.4-3.7-4.4-3.2c-2.1,0.4-48.4,9-48.4,9c-2.6,0.6-3.5,1.4-3.5,4.4v56c0,2.2-0.1,4.2-0.6,6.4c-0.5,2.1-1.4,4.2-2.7,5.9
	c-1.4,1.8-3.1,3.3-5.1,4.4c-2.1,1.1-4.2,1.8-6.5,2.2c-4.3,0.8-7.3,1-10,0.5c-2.6-0.5-4.9-1.7-6.8-3.2c-2.7-2.3-4.2-5.4-4.6-8.6
	c-0.4-3.8,0.8-7.8,3.9-10.8c1.6-1.5,3.5-2.7,6.1-3.6c2.7-1,5.7-1.6,10.3-2.4c1.2-0.2,2.4-0.4,3.6-0.6c1.6-0.3,2.9-0.6,4.1-1.9
	c1.1-1.2,1.2-2.7,1.2-4.2v-64.4c0-0.8,0.1-1.4,0.1-1.7c0.2-1.4,0.8-2.5,1.9-3.3c0.8-0.7,2-1.1,3.5-1.4l55.6-10.4
	c0.5-0.1,4.5-0.8,4.9-0.8c3-0.2,4.7,1.6,4.7,4.6v81.8C-53.9,452.1-53.9,454-54.4,456.3L-54.4,456.3z"/>
</svg>
