<svg xmlns="http://www.w3.org/2000/svg" width="44" height="88" viewBox="0 0 44 88">
  <g fill="none">
    <path fill="#FFFFFF" d="M31.5697765,62.5466666 C30.9535543,62.8793103 23.3842216,66.9740229 23.0068883,67.177701 C22.6293328,67.3813792 22.3648883,67.407816 21.9999996,67.407816 C21.6348885,67.407816 21.3706662,67.3813792 20.9928885,67.177701 C20.6155553,66.9740229 13.0466671,62.8793103 12.4300006,62.5466666 C11.9962228,62.3126436 12.0000006,62.5873563 12.0000006,62.7990804 L12.0000006,71.2310343 C12.0000006,71.7128734 12.620445,72.3333332 13.1020004,72.3333332 L30.8979987,72.3333332 C31.3795543,72.3333332 31.9999987,71.7128734 31.9999987,71.2310343 L31.9999987,62.7990804 C31.9999987,62.5873563 32.0039987,62.3126436 31.5697765,62.5466666 M12.6597782,60.2478161 C13.2024449,60.5494253 20.713333,64.7234482 20.9928885,64.8788505 C21.2726662,65.0340229 21.6348885,65.1089655 21.9999996,65.1089655 C22.3648883,65.1089655 22.7271106,65.0340229 23.0068883,64.8788505 C23.2864439,64.7234482 30.797332,60.5494253 31.3399987,60.2478161 C31.8826654,59.9464368 32.3964431,59 31.3991098,59 L12.6006672,59 C11.6040006,59 12.1171117,59.9464368 12.6597782,60.2478161"/>
    <path fill="#000000" d="M31.5697765,18.5466666 C30.9535543,18.8793103 23.3842216,22.9740229 23.0068883,23.177701 C22.6293328,23.3813792 22.3648883,23.407816 21.9999996,23.407816 C21.6348885,23.407816 21.3706662,23.3813792 20.9928885,23.177701 C20.6155553,22.9740229 13.0466671,18.8793103 12.4300006,18.5466666 C11.9962228,18.3126436 12.0000006,18.5873563 12.0000006,18.7990804 L12.0000006,27.2310343 C12.0000006,27.7128734 12.620445,28.3333332 13.1020004,28.3333332 L30.8979987,28.3333332 C31.3795543,28.3333332 31.9999987,27.7128734 31.9999987,27.2310343 L31.9999987,18.7990804 C31.9999987,18.5873563 32.0039987,18.3126436 31.5697765,18.5466666 M12.6597782,16.2478161 C13.2024449,16.5494253 20.713333,20.7234482 20.9928885,20.8788505 C21.2726662,21.0340229 21.6348885,21.1089655 21.9999996,21.1089655 C22.3648883,21.1089655 22.7271106,21.0340229 23.0068883,20.8788505 C23.2864439,20.7234482 30.797332,16.5494253 31.3399987,16.2478161 C31.8826654,15.9464368 32.3964431,15 31.3991098,15 L12.6006672,15 C11.6040006,15 12.1171117,15.9464368 12.6597782,16.2478161"/>
  </g>
</svg>
