<svg xmlns="http://www.w3.org/2000/svg" width="44" height="88" viewBox="0 0 44 88">
  <g fill="none" fill-rule="evenodd">
    <g fill="#FFFFFF" transform="translate(13 57)">
      <path d="M9,0.75 C4.45,0.75 0.75,4.45 0.75,9 C0.75,13.55 4.45,17.25 9,17.25 C13.55,17.25 17.25,13.55 17.25,9 C17.25,4.45 13.55,0.75 9,0.75 M9,18 C4.038,18 0,13.962 0,9 C0,4.038 4.038,0 9,0 C13.962,0 18,4.038 18,9 C18,13.962 13.962,18 9,18"/>
      <path d="M9,0.75 C6.43,0.75 4.338,4.45 4.338,9 C4.338,13.55 6.43,17.25 9,17.25 C11.57,17.25 13.662,13.55 13.662,9 C13.662,4.45 11.57,0.75 9,0.75 M9,18 C6.016,18 3.588,13.962 3.588,9 C3.588,4.038 6.016,0 9,0 C11.984,0 14.412,4.038 14.412,9 C14.412,13.962 11.984,18 9,18"/>
      <path d="M9,18 C8.79289322,18 8.625,17.8321068 8.625,17.625 L8.625,0.375 C8.625,0.167893219 8.79289322,3.80448985e-17 9,0 C9.20710678,-3.80448985e-17 9.375,0.167893219 9.375,0.375 L9.375,17.625 C9.375,17.8321068 9.20710678,18 9,18"/>
      <path d="M17.625,9.36999863 L0.375,9.36999863 C0.167893219,9.36999863 2.53632657e-17,9.20210541 0,8.99499863 C-2.53632657e-17,8.78789185 0.167893219,8.61999863 0.375,8.61999863 L17.625,8.61999863 C17.8321068,8.61999863 18,8.78789185 18,8.99499863 C18,9.20210541 17.8321068,9.36999863 17.625,9.36999863 M16.356,5.18999863 L1.644,5.18999863 C1.43689322,5.18999863 1.269,5.02210541 1.269,4.81499863 C1.269,4.60789185 1.43689322,4.43999863 1.644,4.43999863 L16.356,4.43999863 C16.5631068,4.43999863 16.731,4.60789185 16.731,4.81499863 C16.731,5.02210541 16.5631068,5.18999863 16.356,5.18999863 M16.356,13.5509986 L1.644,13.5509986 C1.43689322,13.5509986 1.269,13.3831054 1.269,13.1759986 C1.269,12.9688918 1.43689322,12.8009986 1.644,12.8009986 L16.356,12.8009986 C16.5631068,12.8009986 16.731,12.9688918 16.731,13.1759986 C16.731,13.3831054 16.5631068,13.5509986 16.356,13.5509986"/>
    </g>
    <g fill="#000000" transform="translate(13 13)">
      <path d="M9,0.75 C4.45,0.75 0.75,4.45 0.75,9 C0.75,13.55 4.45,17.25 9,17.25 C13.55,17.25 17.25,13.55 17.25,9 C17.25,4.45 13.55,0.75 9,0.75 M9,18 C4.038,18 0,13.962 0,9 C0,4.038 4.038,0 9,0 C13.962,0 18,4.038 18,9 C18,13.962 13.962,18 9,18"/>
      <path d="M9,0.75 C6.43,0.75 4.338,4.45 4.338,9 C4.338,13.55 6.43,17.25 9,17.25 C11.57,17.25 13.662,13.55 13.662,9 C13.662,4.45 11.57,0.75 9,0.75 M9,18 C6.016,18 3.588,13.962 3.588,9 C3.588,4.038 6.016,0 9,0 C11.984,0 14.412,4.038 14.412,9 C14.412,13.962 11.984,18 9,18"/>
      <path d="M9,18 C8.79289322,18 8.625,17.8321068 8.625,17.625 L8.625,0.375 C8.625,0.167893219 8.79289322,3.80448985e-17 9,0 C9.20710678,-3.80448985e-17 9.375,0.167893219 9.375,0.375 L9.375,17.625 C9.375,17.8321068 9.20710678,18 9,18"/>
      <path d="M17.625,9.375 L0.375,9.375 C0.167893219,9.375 2.53632657e-17,9.20710678 0,9 C-2.53632657e-17,8.79289322 0.167893219,8.625 0.375,8.625 L17.625,8.625 C17.8321068,8.625 18,8.79289322 18,9 C18,9.20710678 17.8321068,9.375 17.625,9.375 M16.356,5.195 L1.644,5.195 C1.43689322,5.195 1.269,5.02710678 1.269,4.82 C1.269,4.61289322 1.43689322,4.445 1.644,4.445 L16.356,4.445 C16.5631068,4.445 16.731,4.61289322 16.731,4.82 C16.731,5.02710678 16.5631068,5.195 16.356,5.195 M16.356,13.556 L1.644,13.556 C1.43689322,13.556 1.269,13.3881068 1.269,13.181 C1.269,12.9738932 1.43689322,12.806 1.644,12.806 L16.356,12.806 C16.5631068,12.806 16.731,12.9738932 16.731,13.181 C16.731,13.3881068 16.5631068,13.556 16.356,13.556"/>
    </g>
  </g>
</svg>
