<svg xmlns="http://www.w3.org/2000/svg" width="44" height="88" viewBox="0 0 44 88">
  <g fill="none" fill-rule="evenodd">
    <path fill="#FFFFFF" d="M22.2489463,75.5 C22.1967522,75.5 22.1455341,75.4985071 22.0942587,75.4960381 L22.0941438,75.4960381 C22.0614722,75.4985645 22.0273077,75.5 21.9931432,75.5 C20.7939404,75.5 20.0242343,74.9558944 19.2799649,74.4296462 C18.7660044,74.0665263 18.2810407,73.7236755 17.7096035,73.6285317 C17.4307752,73.5823665 17.1532676,73.5589394 16.8850619,73.5589394 C16.4018782,73.5589394 16.0206712,73.6335271 15.7423597,73.6879607 C15.5732598,73.7210342 15.4273573,73.7494568 15.3164805,73.7494568 C15.2006657,73.7494568 15.0751471,73.724422 15.0205987,73.5380388 C14.9731703,73.3765756 14.938891,73.2201654 14.9059323,73.0688654 C14.8208943,72.6795049 14.7605466,72.4400089 14.5973608,72.4149741 C12.6954028,72.1212167 12.1510101,71.7206021 12.0296256,71.4363764 C12.0124573,71.3957235 12.002696,71.3550132 12.0003418,71.3147048 C11.9941979,71.2054932 12.0715418,71.1090862 12.1794327,71.0914584 C15.1032251,70.6099973 16.4143956,67.6216655 16.4688291,67.4947688 C16.470322,67.4912662 16.4718724,67.4878785 16.4734801,67.4843759 C16.6524562,67.1217154 16.687482,66.8069426 16.5779833,66.5489001 C16.3773601,66.0760519 15.722952,65.8681939 15.2897806,65.7307895 C15.1837845,65.6972566 15.0833006,65.6655611 15.0040619,65.6342676 C14.1396713,65.2925077 14.0677249,64.9417904 14.1017171,64.7629866 C14.1596532,64.458377 14.5666989,64.2460978 14.8959413,64.2460978 C14.9862045,64.2460978 15.0656729,64.2621177 15.132509,64.2932964 C15.5213527,64.475488 15.8718403,64.5677609 16.1742105,64.5677609 C16.5919936,64.5677609 16.7743574,64.3921725 16.7966361,64.3691474 C16.7860135,64.1712804 16.7728645,63.9646282 16.7594284,63.7513728 C16.6723233,62.3690597 16.5644323,60.6514178 17.001738,59.6709827 C18.3124491,56.7320889 21.0920042,56.5037897 21.9126413,56.5037897 C21.9336568,56.5037897 22.2724308,56.5001723 22.2724308,56.5001723 L22.3210076,56.5 C23.1435396,56.5 25.9291237,56.7287012 27.2405812,59.6692027 C27.6780017,60.6501546 27.5698237,62.369232 27.4826037,63.7505115 L27.4789863,63.8105721 C27.4669283,64.0029269 27.4552147,64.1898842 27.4454534,64.3688603 C27.4663541,64.3901629 27.6340759,64.5516834 28.0128713,64.5661531 L28.0132732,64.5661531 C28.3011163,64.5551286 28.6319665,64.4633725 28.995029,64.2932964 C29.101427,64.2436287 29.219596,64.2331784 29.3000405,64.2331784 C29.4229179,64.2331784 29.5474604,64.25695 29.6508726,64.3000719 L29.6571313,64.3026558 C29.9508312,64.4066996 30.143186,64.6125479 30.1473202,64.8276408 C30.1511098,65.0301587 29.996537,65.3346535 29.238085,65.6342676 C29.159478,65.6651592 29.0589941,65.6970843 28.9525961,65.7307895 C28.5189653,65.8684236 27.8647294,66.0760519 27.6642211,66.5488427 C27.554665,66.8067129 27.5897482,67.1213135 27.7686094,67.4841462 C27.7702172,67.4876488 27.7720546,67.4910365 27.7734327,67.4947688 C27.8278088,67.6215507 29.1378309,70.6090212 32.0628865,71.0910565 C32.1708923,71.1088565 32.2480065,71.2051487 32.2420923,71.3144751 C32.2396233,71.3554151 32.2296897,71.3966996 32.2121768,71.4367783 C32.0915388,71.7189943 31.5476054,72.1190922 29.6449584,72.4130792 C29.4895243,72.4369657 29.4292914,72.6394836 29.3365018,73.0642145 C29.3027966,73.2187873 29.2686321,73.370604 29.2216057,73.5302872 C29.181125,73.66884 29.0947664,73.7336665 28.9494954,73.7336665 L28.9258387,73.7336665 C28.8250103,73.7336665 28.6816917,73.7156368 28.5000743,73.6799794 C28.1779519,73.6169904 27.8167843,73.5589394 27.3573148,73.5589394 C27.0889942,73.5589394 26.8113143,73.5823665 26.5323138,73.6285317 C25.9615082,73.7236755 25.4768316,74.0658373 24.9638473,74.4284978 C24.218085,74.9558944 23.4484936,75.5 22.2489463,75.5"/>
    <path fill="#000000" d="M22.2489463,32 C22.1967522,32 22.1455341,31.9985071 22.0942587,31.9960381 L22.0941438,31.9960381 C22.0614722,31.9985645 22.0273077,32 21.9931432,32 C20.7939404,32 20.0242343,31.4558944 19.2799649,30.9296462 C18.7660044,30.5665263 18.2810407,30.2236755 17.7096035,30.1285317 C17.4307752,30.0823665 17.1532676,30.0589394 16.8850619,30.0589394 C16.4018782,30.0589394 16.0206712,30.1335271 15.7423597,30.1879607 C15.5732598,30.2210342 15.4273573,30.2494568 15.3164805,30.2494568 C15.2006657,30.2494568 15.0751471,30.224422 15.0205987,30.0380388 C14.9731703,29.8765756 14.938891,29.7201654 14.9059323,29.5688654 C14.8208943,29.1795049 14.7605466,28.9400089 14.5973608,28.9149741 C12.6954028,28.6212167 12.1510101,28.2206021 12.0296256,27.9363764 C12.0124573,27.8957235 12.002696,27.8550132 12.0003418,27.8147048 C11.9941979,27.7054932 12.0715418,27.6090862 12.1794327,27.5914584 C15.1032251,27.1099973 16.4143956,24.1216655 16.4688291,23.9947688 C16.470322,23.9912662 16.4718724,23.9878785 16.4734801,23.9843759 C16.6524562,23.6217154 16.687482,23.3069426 16.5779833,23.0489001 C16.3773601,22.5760519 15.722952,22.3681939 15.2897806,22.2307895 C15.1837845,22.1972566 15.0833006,22.1655611 15.0040619,22.1342676 C14.1396713,21.7925077 14.0677249,21.4417904 14.1017171,21.2629866 C14.1596532,20.958377 14.5666989,20.7460978 14.8959413,20.7460978 C14.9862045,20.7460978 15.0656729,20.7621177 15.132509,20.7932964 C15.5213527,20.975488 15.8718403,21.0677609 16.1742105,21.0677609 C16.5919936,21.0677609 16.7743574,20.8921725 16.7966361,20.8691474 C16.7860135,20.6712804 16.7728645,20.4646282 16.7594284,20.2513728 C16.6723233,18.8690597 16.5644323,17.1514178 17.001738,16.1709827 C18.3124491,13.2320889 21.0920042,13.0037897 21.9126413,13.0037897 C21.9336568,13.0037897 22.2724308,13.0001723 22.2724308,13.0001723 L22.3210076,13 C23.1435396,13 25.9291237,13.2287012 27.2405812,16.1692027 C27.6780017,17.1501546 27.5698237,18.869232 27.4826037,20.2505115 L27.4789863,20.3105721 C27.4669283,20.5029269 27.4552147,20.6898842 27.4454534,20.8688603 C27.4663541,20.8901629 27.6340759,21.0516834 28.0128713,21.0661531 L28.0132732,21.0661531 C28.3011163,21.0551286 28.6319665,20.9633725 28.995029,20.7932964 C29.101427,20.7436287 29.219596,20.7331784 29.3000405,20.7331784 C29.4229179,20.7331784 29.5474604,20.75695 29.6508726,20.8000719 L29.6571313,20.8026558 C29.9508312,20.9066996 30.143186,21.1125479 30.1473202,21.3276408 C30.1511098,21.5301587 29.996537,21.8346535 29.238085,22.1342676 C29.159478,22.1651592 29.0589941,22.1970843 28.9525961,22.2307895 C28.5189653,22.3684236 27.8647294,22.5760519 27.6642211,23.0488427 C27.554665,23.3067129 27.5897482,23.6213135 27.7686094,23.9841462 C27.7702172,23.9876488 27.7720546,23.9910365 27.7734327,23.9947688 C27.8278088,24.1215507 29.1378309,27.1090212 32.0628865,27.5910565 C32.1708923,27.6088565 32.2480065,27.7051487 32.2420923,27.8144751 C32.2396233,27.8554151 32.2296897,27.8966996 32.2121768,27.9367783 C32.0915388,28.2189943 31.5476054,28.6190922 29.6449584,28.9130792 C29.4895243,28.9369657 29.4292914,29.1394836 29.3365018,29.5642145 C29.3027966,29.7187873 29.2686321,29.870604 29.2216057,30.0302872 C29.181125,30.16884 29.0947664,30.2336665 28.9494954,30.2336665 L28.9258387,30.2336665 C28.8250103,30.2336665 28.6816917,30.2156368 28.5000743,30.1799794 C28.1779519,30.1169904 27.8167843,30.0589394 27.3573148,30.0589394 C27.0889942,30.0589394 26.8113143,30.0823665 26.5323138,30.1285317 C25.9615082,30.2236755 25.4768316,30.5658373 24.9638473,30.9284978 C24.218085,31.4558944 23.4484936,32 22.2489463,32"/>
  </g>
</svg>
