<svg xmlns="http://www.w3.org/2000/svg" width="44" height="88" viewBox="0 0 44 88">
  <g fill="none">
    <path fill="#000" d="M17.4166667,27.0833333 L16.5,27.0833333 L16.5,19.6876667 C16.7823333,19.4759167 17.08575,19.2944167 17.4166667,19.1688333 L17.4166667,27.0833333 Z M20.1666667,27.0833333 L21.0833333,27.0833333 L21.0833333,18.628 C20.8734167,18.8709167 20.67725,19.1303333 20.5140833,19.4135833 L20.1666667,19.2449167 L20.1666667,27.0833333 Z M18.3333333,27.0833333 L19.25,27.0833333 L19.25,18.9726667 C18.7843333,18.90025 18.6789167,18.9268333 18.3333333,18.9635 L18.3333333,27.0833333 Z M14.6666667,27.0833333 L15.5833333,27.0833333 L15.5833333,20.6483333 C15.2973333,21.0681667 15.0745833,21.5384167 14.949,22.0554167 L14.6666667,21.8885833 L14.6666667,27.0833333 Z M11.9166667,22.2708333 C11.3611667,22.77225 11,23.512 11,24.3498333 C11,25.1876667 11.3611667,25.9274167 11.9166667,26.4288333 L11.9166667,22.2708333 L11.9166667,22.2708333 Z M29.2224167,21.65575 C29.0354167,19.0551667 27.01875,17 24.5318333,17 C23.595,17 22.7315,17.3006667 22,17.8039167 L22,27.0833333 L30.3315833,27.0833333 C31.8046667,27.0833333 33,25.8064167 33,24.2361667 C33,22.18925 31.0126667,20.7785 29.2224167,21.65575 L29.2224167,21.65575 Z M13.75,21.631 C13.4731667,21.609 13.2678333,21.6035 12.8333333,21.7428333 L12.8333333,26.95775 C13.2421667,27.0888333 13.4163333,27.08425 13.75,27.08425 L13.75,21.631 Z"/>
    <path fill="#FFF" d="M17.4166667,71.0833333 L16.5,71.0833333 L16.5,63.6876667 C16.7823333,63.4759167 17.08575,63.2944167 17.4166667,63.1688333 L17.4166667,71.0833333 Z M20.1666667,71.0833333 L21.0833333,71.0833333 L21.0833333,62.628 C20.8734167,62.8709167 20.67725,63.1303333 20.5140833,63.4135833 L20.1666667,63.2449167 L20.1666667,71.0833333 Z M18.3333333,71.0833333 L19.25,71.0833333 L19.25,62.9726667 C18.7843333,62.90025 18.6789167,62.9268333 18.3333333,62.9635 L18.3333333,71.0833333 Z M14.6666667,71.0833333 L15.5833333,71.0833333 L15.5833333,64.6483333 C15.2973333,65.0681667 15.0745833,65.5384167 14.949,66.0554167 L14.6666667,65.8885833 L14.6666667,71.0833333 Z M11.9166667,66.2708333 C11.3611667,66.77225 11,67.512 11,68.3498333 C11,69.1876667 11.3611667,69.9274167 11.9166667,70.4288333 L11.9166667,66.2708333 L11.9166667,66.2708333 Z M29.2224167,65.65575 C29.0354167,63.0551667 27.01875,61 24.5318333,61 C23.595,61 22.7315,61.3006667 22,61.8039167 L22,71.0833333 L30.3315833,71.0833333 C31.8046667,71.0833333 33,69.8064167 33,68.2361667 C33,66.18925 31.0126667,64.7785 29.2224167,65.65575 L29.2224167,65.65575 Z M13.75,65.631 C13.4731667,65.609 13.2678333,65.6035 12.8333333,65.7428333 L12.8333333,70.95775 C13.2421667,71.0888333 13.4163333,71.08425 13.75,71.08425 L13.75,65.631 Z"/>
  </g>
</svg>
