<svg xmlns="http://www.w3.org/2000/svg" width="44" height="88" viewBox="0 0 44 88">
	<g fill="none">
		<path fill="#000" d="M21.7,13c-4.9,0-8.9,4-8.9,8.9c0,4.9,4,8.9,8.9,8.9c4.9,0,8.9-4,8.9-8.9C30.6,17,26.6,13,21.7,13L21.7,13z M25.8,25.8
			c-0.2,0.3-0.5,0.3-0.8,0.2c-2.1-1.3-4.7-1.6-7.8-0.9c-0.3,0.1-0.6-0.1-0.7-0.4c-0.1-0.3,0.1-0.6,0.4-0.7c3.4-0.8,6.3-0.4,8.6,1
			C25.9,25.2,25.9,25.6,25.8,25.8z M26.9,23.4c-0.2,0.3-0.6,0.4-1,0.2c-2.4-1.5-6-1.9-8.9-1c-0.4,0.1-0.8-0.1-0.9-0.5
			c-0.1-0.4,0.1-0.8,0.5-0.9c3.2-1,7.3-0.5,10,1.2C27,22.7,27.1,23.1,26.9,23.4L26.9,23.4z M27,20.9c-2.9-1.7-7.6-1.9-10.3-1
			c-0.4,0.1-0.9-0.1-1-0.6c-0.1-0.4,0.1-0.9,0.6-1c3.1-1,8.4-0.8,11.7,1.2c0.4,0.2,0.5,0.7,0.3,1.1C27.9,21,27.4,21.1,27,20.9L27,20.9
			z"/>
		<path fill="#FFF" class="st0" d="M22,57c-4.9,0-8.9,4-8.9,8.9c0,4.9,4,8.9,8.9,8.9c4.9,0,8.9-4,8.9-8.9C30.9,61,26.9,57,22,57L22,57z M26.1,69.8
			c-0.2,0.3-0.5,0.3-0.8,0.2c-2.1-1.3-4.7-1.6-7.8-0.9c-0.3,0.1-0.6-0.1-0.7-0.4c-0.1-0.3,0.1-0.6,0.4-0.7c3.4-0.8,6.3-0.4,8.6,1
			C26.2,69.2,26.2,69.6,26.1,69.8z M27.2,67.4c-0.2,0.3-0.6,0.4-1,0.2c-2.4-1.5-6-1.9-8.9-1c-0.4,0.1-0.8-0.1-0.9-0.5
			c-0.1-0.4,0.1-0.8,0.5-0.9c3.2-1,7.3-0.5,10,1.2C27.3,66.7,27.4,67.1,27.2,67.4L27.2,67.4z M27.3,64.9c-2.9-1.7-7.6-1.9-10.3-1
			c-0.4,0.1-0.9-0.1-1-0.6c-0.1-0.4,0.1-0.9,0.6-1c3.1-1,8.4-0.8,11.7,1.2c0.4,0.2,0.5,0.7,0.3,1.1C28.2,65,27.7,65.1,27.3,64.9
			L27.3,64.9z"/>
	</g>
</svg>
