<?xml version="1.0" encoding="utf-8"?>
<!-- Generator: Adobe Illustrator 26.2.1, SVG Export Plug-In . SVG Version: 6.00 Build 0)  -->
<svg version="1.1" id="图层_1" xmlns="http://www.w3.org/2000/svg" xmlns:xlink="http://www.w3.org/1999/xlink" x="0px" y="0px"
	 width="44px" height="88px" viewBox="0 0 44 88" style="enable-background:new 0 0 44 88;" xml:space="preserve">
<path style="fill:#FFFFFF;" d="M27.2,57.8H30l-6.1,7l7.2,9.5h-5.6l-4.4-5.7l-5,5.7h-2.8l6.5-7.5l-6.9-9h5.8l4,5.3L27.2,57.8z
	 M26.3,72.6h1.5l-10-13.2h-1.7L26.3,72.6z"/>
<path d="M27.2,13.8H30l-6.1,7l7.2,9.5h-5.6l-4.4-5.7l-5,5.7h-2.8l6.5-7.5l-6.9-9h5.8l4,5.3L27.2,13.8z M26.3,28.6h1.5l-10-13.2h-1.7
	L26.3,28.6z"/>
</svg>
