<svg xmlns="http://www.w3.org/2000/svg" width="44" height="88" viewBox="0 0 44 88">
  <g fill="none" fill-rule="evenodd">
    <path fill="#FFFFFF" d="M19.75,69.021125 L19.75,62.478875 L25.5,65.750125 L19.75,69.021125 Z M32.54025,60.420375 C32.28725,59.467625 31.54175,58.717375 30.59525,58.46275 C28.879625,58 22,58 22,58 C22,58 15.120375,58 13.40475,58.46275 C12.45825,58.717375 11.71275,59.467625 11.45975,60.420375 C11,62.147125 11,65.75 11,65.75 C11,65.75 11,69.35275 11.45975,71.079625 C11.71275,72.032375 12.45825,72.782625 13.40475,73.037375 C15.120375,73.5 22,73.5 22,73.5 C22,73.5 28.879625,73.5 30.59525,73.037375 C31.54175,72.782625 32.28725,72.032375 32.54025,71.079625 C33,69.35275 33,65.75 33,65.75 C33,65.75 33,62.147125 32.54025,60.420375 L32.54025,60.420375 Z"/>
    <path fill="#000000" d="M19.75,25.021125 L19.75,18.478875 L25.5,21.750125 L19.75,25.021125 Z M32.54025,16.420375 C32.28725,15.467625 31.54175,14.717375 30.59525,14.46275 C28.879625,14 22,14 22,14 C22,14 15.120375,14 13.40475,14.46275 C12.45825,14.717375 11.71275,15.467625 11.45975,16.420375 C11,18.147125 11,21.75 11,21.75 C11,21.75 11,25.35275 11.45975,27.079625 C11.71275,28.032375 12.45825,28.782625 13.40475,29.037375 C15.120375,29.5 22,29.5 22,29.5 C22,29.5 28.879625,29.5 30.59525,29.037375 C31.54175,28.782625 32.28725,28.032375 32.54025,27.079625 C33,25.35275 33,21.75 33,21.75 C33,21.75 33,18.147125 32.54025,16.420375 L32.54025,16.420375 Z"/>
  </g>
</svg>
